<svg width="24" height="24" viewBox="0 0 24 24" fill="none" xmlns="http://www.w3.org/2000/svg">
<g clip-path="url(#clip0_571_445)">
<path fill-rule="evenodd" clip-rule="evenodd" d="M4.75234 19.2479C4.61169 19.1073 4.53267 18.9165 4.53267 18.7176L4.53268 8.81813C4.53268 8.40391 4.86846 8.06812 5.28268 8.06812C5.69689 8.06812 6.03267 8.40391 6.03267 8.81812V16.907L18.1874 4.75226C18.4803 4.45937 18.9551 4.45937 19.248 4.75226C19.5409 5.04515 19.5409 5.52003 19.248 5.81292L7.09333 17.9676L15.1822 17.9676C15.5964 17.9676 15.9322 18.3034 15.9322 18.7176C15.9322 19.1318 15.5964 19.4676 15.1822 19.4676L5.28267 19.4676C5.08376 19.4676 4.893 19.3886 4.75234 19.2479Z" fill="white"/>
</g>
<defs>
<clipPath id="clip0_571_445">
<rect width="24" height="24" fill="white"/>
</clipPath>
</defs>
</svg>
