<svg width="24" height="24" viewBox="0 0 24 24" fill="none" xmlns="http://www.w3.org/2000/svg">
<path fill-rule="evenodd" clip-rule="evenodd" d="M12.3689 4.3883C12.1252 4.34257 11.8751 4.34257 11.6313 4.3883C11.3885 4.43386 11.1397 4.54817 10.3007 4.96764L7.10072 6.56764C6.0727 7.08165 5.77787 7.24366 5.5713 7.45457C5.36386 7.66636 5.20611 7.92161 5.10944 8.20186C5.01318 8.48094 5.00013 8.8171 5.00013 9.96646V13.3395C5.00013 14.3752 5.01096 14.6777 5.09164 14.9352C5.17262 15.1936 5.30526 15.433 5.48151 15.6386C5.65707 15.8435 5.90785 16.013 6.78614 16.5619L9.98614 18.5619C10.9713 19.1776 11.2665 19.3464 11.557 19.4124C11.8487 19.4787 12.1516 19.4787 12.4433 19.4124C12.7338 19.3464 13.029 19.1776 14.0141 18.5619L17.2141 16.5619C18.0924 16.013 18.3432 15.8435 18.5188 15.6386C18.695 15.433 18.8276 15.1936 18.9086 14.9352C18.9893 14.6777 19.0001 14.3752 19.0001 13.3395V9.96646C19.0001 8.8171 18.9871 8.48094 18.8908 8.20186C18.7942 7.92161 18.6364 7.66636 18.429 7.45457C18.2224 7.24366 17.9276 7.08166 16.8995 6.56764L13.6995 4.96764C12.8606 4.54817 12.6118 4.43386 12.3689 4.3883ZM11.2625 2.4226C11.75 2.33114 12.2502 2.33114 12.7377 2.4226C13.291 2.52639 13.8041 2.78334 14.4839 3.12368C14.5201 3.14182 14.5568 3.16019 14.594 3.17879L17.794 4.77879C17.84 4.80182 17.8855 4.82452 17.9304 4.84691C18.7604 5.26123 19.3862 5.57358 19.8578 6.05513C20.2727 6.47871 20.5882 6.98922 20.7815 7.54972C21.0013 8.18692 21.0008 8.88629 21.0002 9.81399C21.0002 9.86414 21.0001 9.91496 21.0001 9.96646V13.3395C21.0001 13.3857 21.0002 13.4312 21.0002 13.4761C21.0007 14.314 21.0011 14.9461 20.8171 15.5332C20.6552 16.0501 20.3899 16.5287 20.0374 16.9401C19.637 17.4072 19.1008 17.7419 18.39 18.1856C18.3519 18.2093 18.3133 18.2334 18.2741 18.2579L15.0741 20.2579C15.03 20.2855 14.9864 20.3128 14.9434 20.3397C14.1488 20.8371 13.5498 21.212 12.8865 21.3627C12.303 21.4953 11.6973 21.4953 11.1138 21.3627C10.4504 21.212 9.85146 20.8371 9.05687 20.3397C9.01388 20.3128 8.97032 20.2855 8.92614 20.2579L5.72614 18.2579C5.68701 18.2334 5.64839 18.2093 5.61027 18.1856C4.89951 17.7419 4.36323 17.4072 3.96288 16.9401C3.61039 16.5287 3.34511 16.0501 3.18314 15.5332C2.99917 14.9461 2.99956 14.314 3.00008 13.4761C3.00011 13.4312 3.00013 13.3857 3.00013 13.3395V9.96646C3.00013 9.91496 3.0001 9.86414 3.00007 9.814C2.99944 8.8863 2.99897 8.18692 3.21875 7.54972C3.41208 6.98922 3.72759 6.47871 4.14246 6.05513C4.6141 5.57358 5.23985 5.26123 6.06989 4.84691C6.11476 4.82452 6.16022 4.80182 6.20629 4.77879L9.4063 3.17879C9.44349 3.16019 9.48019 3.14181 9.51641 3.12368C10.1961 2.78334 10.7093 2.52639 11.2625 2.4226Z" fill="#FD5E32"/>
<path fill-rule="evenodd" clip-rule="evenodd" d="M4.44735 6.10547L8.44735 8.10547L7.55292 9.89433L3.55292 7.89433L4.44735 6.10547ZM15.5529 8.10547L19.5529 6.10547L20.4473 7.89433L16.4473 9.89433L15.5529 8.10547ZM11.0001 19.9999V16.9999H13.0001V19.9999H11.0001Z" fill="#FD5E32"/>
<path fill-rule="evenodd" clip-rule="evenodd" d="M10.7758 10.7756L11.4309 8.81017H12.5693L13.2245 10.7756L15.1899 11.4307V12.5691L13.2245 13.2242L12.5693 15.1896H11.4309L10.7758 13.2242L8.8104 12.5691V11.4307L10.7758 10.7756Z" fill="#FD5E32"/>
</svg>
