<svg width="2500" height="2500" version="1.1" xmlns="http://www.w3.org/2000/svg" ><desc>Binarized and Traced by BDFM https://bitmap.designfamilymarket.com/</desc><path fill="rgb(0,0,0)" d="M 852 157 L 861 157 L 861 176 L 852 176 L 852 194 L 843 194 L 843 213 L 833 213 L 833 241 L 824 241 L 824 269 L 815 269 L 815 306 L 806 306 L 806 324 L 815 324 L 815 398 L 824 398 L 824 491 L 833 491 L 833 509 L 843 509 L 843 537 L 852 537 L 852 556 L 861 556 L 861 565 L 880 565 L 880 574 L 889 574 L 889 583 L 898 583 L 898 593 L 907 593 L 907 602 L 926 602 L 926 611 L 944 611 L 944 620 L 981 620 L 981 630 L 991 630 L 991 648 L 1000 648 L 1000 639 L 1037 639 L 1037 648 L 1120 648 L 1120 639 L 1139 639 L 1139 620 L 1148 620 L 1148 611 L 1176 611 L 1176 620 L 1185 620 L 1185 611 L 1194 611 L 1194 602 L 1204 602 L 1204 593 L 1213 593 L 1213 583 L 1222 583 L 1222 574 L 1231 574 L 1231 565 L 1241 565 L 1241 583 L 1250 583 L 1250 593 L 1259 593 L 1259 583 L 1269 583 L 1269 574 L 1250 574 L 1250 556 L 1315 556 L 1315 546 L 1296 546 L 1296 537 L 1287 537 L 1287 528 L 1296 528 L 1296 509 L 1306 509 L 1306 491 L 1315 491 L 1315 481 L 1296 481 L 1296 491 L 1287 491 L 1287 481 L 1278 481 L 1278 472 L 1287 472 L 1287 463 L 1306 463 L 1306 454 L 1333 454 L 1333 444 L 1370 444 L 1370 454 L 1380 454 L 1380 481 L 1370 481 L 1370 491 L 1389 491 L 1389 500 L 1398 500 L 1398 509 L 1370 509 L 1370 528 L 1398 528 L 1398 537 L 1352 537 L 1352 546 L 1333 546 L 1333 537 L 1315 537 L 1315 546 L 1324 546 L 1324 556 L 1315 556 L 1315 565 L 1333 565 L 1333 556 L 1361 556 L 1361 546 L 1407 546 L 1407 537 L 1417 537 L 1417 546 L 1407 546 L 1407 556 L 1463 556 L 1463 565 L 1472 565 L 1472 574 L 1481 574 L 1481 583 L 1491 583 L 1491 565 L 1500 565 L 1500 556 L 1528 556 L 1528 565 L 1537 565 L 1537 546 L 1546 546 L 1546 556 L 1556 556 L 1556 546 L 1565 546 L 1565 556 L 1556 556 L 1556 565 L 1565 565 L 1565 574 L 1583 574 L 1583 593 L 1611 593 L 1611 611 L 1602 611 L 1602 620 L 1630 620 L 1630 611 L 1648 611 L 1648 620 L 1657 620 L 1657 630 L 1667 630 L 1667 657 L 1694 657 L 1694 676 L 1704 676 L 1704 685 L 1713 685 L 1713 694 L 1731 694 L 1731 704 L 1722 704 L 1722 731 L 1731 731 L 1731 741 L 1750 741 L 1750 722 L 1778 722 L 1778 731 L 1759 731 L 1759 741 L 1778 741 L 1778 750 L 1787 750 L 1787 741 L 1796 741 L 1796 722 L 1806 722 L 1806 741 L 1815 741 L 1815 731 L 1870 731 L 1870 741 L 1880 741 L 1880 731 L 1898 731 L 1898 741 L 1926 741 L 1926 750 L 1935 750 L 1935 731 L 1944 731 L 1944 750 L 1954 750 L 1954 741 L 1972 741 L 1972 722 L 1981 722 L 1981 731 L 2000 731 L 2000 722 L 2046 722 L 2046 713 L 2056 713 L 2056 704 L 2074 704 L 2074 694 L 2083 694 L 2083 685 L 2102 685 L 2102 676 L 2111 676 L 2111 667 L 2120 667 L 2120 657 L 2111 657 L 2111 648 L 2130 648 L 2130 639 L 2139 639 L 2139 630 L 2120 630 L 2120 620 L 2130 620 L 2130 611 L 2139 611 L 2139 602 L 2148 602 L 2148 593 L 2157 593 L 2157 583 L 2167 583 L 2167 574 L 2176 574 L 2176 565 L 2185 565 L 2185 556 L 2194 556 L 2194 546 L 2204 546 L 2204 537 L 2213 537 L 2213 519 L 2222 519 L 2222 509 L 2231 509 L 2231 491 L 2241 491 L 2241 472 L 2250 472 L 2250 454 L 2259 454 L 2259 435 L 2269 435 L 2269 407 L 2278 407 L 2278 380 L 2287 380 L 2287 361 L 2296 361 L 2296 333 L 2306 333 L 2306 315 L 2315 315 L 2315 333 L 2306 333 L 2306 361 L 2296 361 L 2296 398 L 2287 398 L 2287 417 L 2278 417 L 2278 454 L 2269 454 L 2269 481 L 2259 481 L 2259 500 L 2250 500 L 2250 519 L 2241 519 L 2241 546 L 2231 546 L 2231 556 L 2241 556 L 2241 574 L 2231 574 L 2231 556 L 2222 556 L 2222 574 L 2213 574 L 2213 593 L 2204 593 L 2204 583 L 2167 583 L 2167 593 L 2185 593 L 2185 602 L 2176 602 L 2176 630 L 2157 630 L 2157 639 L 2139 639 L 2139 648 L 2157 648 L 2157 667 L 2167 667 L 2167 657 L 2176 657 L 2176 648 L 2185 648 L 2185 639 L 2194 639 L 2194 630 L 2204 630 L 2204 620 L 2213 620 L 2213 630 L 2204 630 L 2204 639 L 2194 639 L 2194 648 L 2185 648 L 2185 667 L 2176 667 L 2176 676 L 2167 676 L 2167 685 L 2157 685 L 2157 694 L 2148 694 L 2148 704 L 2139 704 L 2139 713 L 2120 713 L 2120 722 L 2102 722 L 2102 731 L 2093 731 L 2093 741 L 2065 741 L 2065 750 L 2046 750 L 2046 759 L 2019 759 L 2019 769 L 2000 769 L 2000 759 L 1991 759 L 1991 769 L 1935 769 L 1935 778 L 1870 778 L 1870 787 L 1898 787 L 1898 796 L 1917 796 L 1917 806 L 1926 806 L 1926 815 L 1935 815 L 1935 833 L 1944 833 L 1944 843 L 1935 843 L 1935 861 L 1926 861 L 1926 880 L 1917 880 L 1917 889 L 1907 889 L 1907 898 L 1889 898 L 1889 907 L 1861 907 L 1861 917 L 1796 917 L 1796 926 L 1787 926 L 1787 917 L 1741 917 L 1741 907 L 1731 907 L 1731 926 L 1722 926 L 1722 907 L 1713 907 L 1713 898 L 1704 898 L 1704 907 L 1694 907 L 1694 898 L 1685 898 L 1685 907 L 1676 907 L 1676 972 L 1685 972 L 1685 981 L 1676 981 L 1676 1074 L 1667 1074 L 1667 1093 L 1676 1093 L 1676 1102 L 1657 1102 L 1657 1120 L 1667 1120 L 1667 1139 L 1676 1139 L 1676 1120 L 1685 1120 L 1685 1157 L 1676 1157 L 1676 1176 L 1667 1176 L 1667 1185 L 1657 1185 L 1657 1194 L 1667 1194 L 1667 1204 L 1657 1204 L 1657 1241 L 1667 1241 L 1667 1213 L 1676 1213 L 1676 1204 L 1685 1204 L 1685 1176 L 1694 1176 L 1694 1130 L 1704 1130 L 1704 1093 L 1713 1093 L 1713 1046 L 1722 1046 L 1722 981 L 1731 981 L 1731 935 L 1741 935 L 1741 1000 L 1750 1000 L 1750 1019 L 1759 1019 L 1759 1000 L 1769 1000 L 1769 981 L 1778 981 L 1778 991 L 1787 991 L 1787 963 L 1796 963 L 1796 944 L 1806 944 L 1806 972 L 1815 972 L 1815 1037 L 1806 1037 L 1806 1120 L 1796 1120 L 1796 1157 L 1806 1157 L 1806 1139 L 1815 1139 L 1815 1130 L 1833 1130 L 1833 1111 L 1843 1111 L 1843 1130 L 1852 1130 L 1852 1148 L 1843 1148 L 1843 1139 L 1824 1139 L 1824 1157 L 1833 1157 L 1833 1167 L 1824 1167 L 1824 1241 L 1833 1241 L 1833 1231 L 1843 1231 L 1843 1222 L 1852 1222 L 1852 1213 L 1861 1213 L 1861 1231 L 1852 1231 L 1852 1250 L 1843 1250 L 1843 1259 L 1861 1259 L 1861 1241 L 1870 1241 L 1870 1259 L 1861 1259 L 1861 1287 L 1852 1287 L 1852 1306 L 1843 1306 L 1843 1315 L 1833 1315 L 1833 1333 L 1824 1333 L 1824 1352 L 1806 1352 L 1806 1361 L 1815 1361 L 1815 1370 L 1806 1370 L 1806 1389 L 1759 1389 L 1759 1426 L 1750 1426 L 1750 1435 L 1741 1435 L 1741 1454 L 1731 1454 L 1731 1472 L 1722 1472 L 1722 1481 L 1713 1481 L 1713 1500 L 1704 1500 L 1704 1509 L 1694 1509 L 1694 1519 L 1685 1519 L 1685 1528 L 1676 1528 L 1676 1537 L 1667 1537 L 1667 1556 L 1657 1556 L 1657 1565 L 1648 1565 L 1648 1583 L 1639 1583 L 1639 1593 L 1630 1593 L 1630 1620 L 1620 1620 L 1620 1639 L 1611 1639 L 1611 1657 L 1602 1657 L 1602 1685 L 1593 1685 L 1593 1704 L 1583 1704 L 1583 1731 L 1574 1731 L 1574 1741 L 1565 1741 L 1565 1750 L 1546 1750 L 1546 1787 L 1528 1787 L 1528 1806 L 1491 1806 L 1491 1824 L 1472 1824 L 1472 1833 L 1454 1833 L 1454 1843 L 1463 1843 L 1463 1852 L 1472 1852 L 1472 1861 L 1454 1861 L 1454 1852 L 1435 1852 L 1435 1861 L 1426 1861 L 1426 1843 L 1417 1843 L 1417 1824 L 1398 1824 L 1398 1796 L 1389 1796 L 1389 1769 L 1398 1769 L 1398 1713 L 1407 1713 L 1407 1685 L 1417 1685 L 1417 1667 L 1426 1667 L 1426 1648 L 1435 1648 L 1435 1639 L 1444 1639 L 1444 1611 L 1454 1611 L 1454 1565 L 1444 1565 L 1444 1574 L 1435 1574 L 1435 1583 L 1426 1583 L 1426 1602 L 1417 1602 L 1417 1611 L 1407 1611 L 1407 1620 L 1398 1620 L 1398 1630 L 1380 1630 L 1380 1639 L 1370 1639 L 1370 1648 L 1352 1648 L 1352 1657 L 1333 1657 L 1333 1667 L 1306 1667 L 1306 1676 L 1278 1676 L 1278 1685 L 1231 1685 L 1231 1694 L 1222 1694 L 1222 1685 L 1185 1685 L 1185 1694 L 1167 1694 L 1167 1704 L 1148 1704 L 1148 1713 L 1139 1713 L 1139 1731 L 1130 1731 L 1130 1741 L 1120 1741 L 1120 1722 L 1130 1722 L 1130 1713 L 1139 1713 L 1139 1704 L 1083 1704 L 1083 1713 L 1074 1713 L 1074 1722 L 1046 1722 L 1046 1731 L 1028 1731 L 1028 1722 L 1037 1722 L 1037 1713 L 1046 1713 L 1046 1704 L 1056 1704 L 1056 1694 L 1065 1694 L 1065 1685 L 1074 1685 L 1074 1667 L 1083 1667 L 1083 1639 L 1093 1639 L 1093 1583 L 1065 1583 L 1065 1593 L 1046 1593 L 1046 1602 L 1019 1602 L 1019 1611 L 1000 1611 L 1000 1620 L 944 1620 L 944 1611 L 935 1611 L 935 1593 L 926 1593 L 926 1565 L 917 1565 L 917 1546 L 907 1546 L 907 1537 L 898 1537 L 898 1528 L 889 1528 L 889 1509 L 880 1509 L 880 1491 L 870 1491 L 870 1472 L 861 1472 L 861 1454 L 852 1454 L 852 1444 L 833 1444 L 833 1454 L 806 1454 L 806 1463 L 787 1463 L 787 1472 L 759 1472 L 759 1481 L 750 1481 L 750 1491 L 741 1491 L 741 1500 L 731 1500 L 731 1565 L 741 1565 L 741 1667 L 731 1667 L 731 1685 L 722 1685 L 722 1704 L 713 1704 L 713 1713 L 694 1713 L 694 1722 L 685 1722 L 685 1731 L 676 1731 L 676 1741 L 667 1741 L 667 1769 L 676 1769 L 676 1778 L 694 1778 L 694 1787 L 704 1787 L 704 1796 L 713 1796 L 713 1889 L 704 1889 L 704 1907 L 694 1907 L 694 1926 L 685 1926 L 685 1935 L 676 1935 L 676 1944 L 667 1944 L 667 1954 L 657 1954 L 657 1963 L 620 1963 L 620 1954 L 611 1954 L 611 1944 L 602 1944 L 602 1954 L 593 1954 L 593 1963 L 574 1963 L 574 1972 L 546 1972 L 546 1963 L 528 1963 L 528 1954 L 519 1954 L 519 1944 L 509 1944 L 509 1935 L 500 1935 L 500 1880 L 509 1880 L 509 1852 L 519 1852 L 519 1833 L 528 1833 L 528 1815 L 537 1815 L 537 1796 L 546 1796 L 546 1787 L 556 1787 L 556 1769 L 565 1769 L 565 1750 L 574 1750 L 574 1731 L 583 1731 L 583 1713 L 593 1713 L 593 1694 L 583 1694 L 583 1528 L 574 1528 L 574 1491 L 565 1491 L 565 1454 L 556 1454 L 556 1287 L 565 1287 L 565 1250 L 574 1250 L 574 1222 L 583 1222 L 583 1194 L 593 1194 L 593 1176 L 602 1176 L 602 1157 L 611 1157 L 611 1139 L 620 1139 L 620 1111 L 630 1111 L 630 1093 L 639 1093 L 639 1074 L 648 1074 L 648 963 L 657 963 L 657 907 L 667 907 L 667 880 L 676 880 L 676 861 L 685 861 L 685 843 L 694 843 L 694 824 L 704 824 L 704 806 L 713 806 L 713 787 L 722 787 L 722 778 L 731 778 L 731 759 L 741 759 L 741 750 L 750 750 L 750 731 L 759 731 L 759 722 L 769 722 L 769 704 L 778 704 L 778 694 L 787 694 L 787 676 L 796 676 L 796 667 L 806 667 L 806 648 L 815 648 L 815 639 L 824 639 L 824 630 L 833 630 L 833 611 L 843 611 L 843 593 L 833 593 L 833 583 L 824 583 L 824 574 L 815 574 L 815 556 L 806 556 L 806 537 L 796 537 L 796 519 L 787 519 L 787 500 L 778 500 L 778 472 L 769 472 L 769 333 L 778 333 L 778 306 L 787 306 L 787 278 L 796 278 L 796 259 L 806 259 L 806 241 L 815 241 L 815 222 L 824 222 L 824 204 L 833 204 L 833 185 L 843 185 L 843 176 L 852 176 Z M 1361 463 L 1361 472 L 1370 472 L 1370 463 Z M 1287 472 L 1287 481 L 1296 481 L 1296 472 Z M 2231 509 L 2231 519 L 2241 519 L 2241 509 Z M 1398 556 L 1398 565 L 1407 565 L 1407 556 Z M 1352 565 L 1352 574 L 1370 574 L 1370 565 Z M 1389 565 L 1389 574 L 1398 574 L 1398 565 Z M 1435 565 L 1435 574 L 1444 574 L 1444 565 Z M 1454 565 L 1454 574 L 1463 574 L 1463 565 Z M 1417 574 L 1417 583 L 1380 583 L 1380 593 L 1398 593 L 1398 602 L 1417 602 L 1417 611 L 1463 611 L 1463 602 L 1481 602 L 1481 583 L 1472 583 L 1472 593 L 1454 593 L 1454 602 L 1435 602 L 1435 583 L 1426 583 L 1426 574 Z M 1444 574 L 1444 583 L 1454 583 L 1454 574 Z M 1231 583 L 1231 593 L 1213 593 L 1213 602 L 1250 602 L 1250 593 L 1241 593 L 1241 583 Z M 1269 583 L 1269 593 L 1287 593 L 1287 620 L 1306 620 L 1306 630 L 1324 630 L 1324 620 L 1315 620 L 1315 611 L 1333 611 L 1333 602 L 1306 602 L 1306 611 L 1296 611 L 1296 602 L 1306 602 L 1306 593 L 1296 593 L 1296 583 Z M 1315 583 L 1315 593 L 1324 593 L 1324 583 Z M 1546 583 L 1546 593 L 1565 593 L 1565 583 Z M 1259 593 L 1259 602 L 1269 602 L 1269 593 Z M 1574 593 L 1574 602 L 1583 602 L 1583 593 Z M 1500 602 L 1500 611 L 1509 611 L 1509 602 Z M 1583 602 L 1583 611 L 1602 611 L 1602 602 Z M 1333 611 L 1333 620 L 1370 620 L 1370 611 Z M 1463 611 L 1463 620 L 1454 620 L 1454 630 L 1472 630 L 1472 611 Z M 1491 611 L 1491 620 L 1500 620 L 1500 611 Z M 1537 611 L 1537 630 L 1556 630 L 1556 620 L 1546 620 L 1546 611 Z M 1370 620 L 1370 630 L 1380 630 L 1380 620 Z M 1287 630 L 1287 639 L 1278 639 L 1278 648 L 1287 648 L 1287 667 L 1296 667 L 1296 648 L 1315 648 L 1315 639 L 1306 639 L 1306 630 Z M 1324 630 L 1324 639 L 1333 639 L 1333 648 L 1324 648 L 1324 657 L 1352 657 L 1352 648 L 1361 648 L 1361 639 L 1343 639 L 1343 630 Z M 1407 630 L 1407 639 L 1426 639 L 1426 648 L 1444 648 L 1444 630 Z M 1519 630 L 1519 639 L 1528 639 L 1528 630 Z M 1556 630 L 1556 648 L 1565 648 L 1565 639 L 1574 639 L 1574 630 Z M 1611 630 L 1611 639 L 1602 639 L 1602 657 L 1583 657 L 1583 667 L 1602 667 L 1602 676 L 1620 676 L 1620 685 L 1611 685 L 1611 704 L 1620 704 L 1620 713 L 1602 713 L 1602 722 L 1639 722 L 1639 731 L 1648 731 L 1648 741 L 1620 741 L 1620 750 L 1611 750 L 1611 759 L 1602 759 L 1602 769 L 1611 769 L 1611 778 L 1602 778 L 1602 796 L 1611 796 L 1611 787 L 1620 787 L 1620 806 L 1611 806 L 1611 815 L 1630 815 L 1630 824 L 1639 824 L 1639 843 L 1630 843 L 1630 852 L 1620 852 L 1620 880 L 1611 880 L 1611 898 L 1602 898 L 1602 926 L 1611 926 L 1611 907 L 1620 907 L 1620 889 L 1630 889 L 1630 880 L 1639 880 L 1639 870 L 1648 870 L 1648 861 L 1667 861 L 1667 787 L 1685 787 L 1685 769 L 1676 769 L 1676 778 L 1667 778 L 1667 769 L 1676 769 L 1676 750 L 1667 750 L 1667 741 L 1685 741 L 1685 731 L 1676 731 L 1676 676 L 1657 676 L 1657 667 L 1611 667 L 1611 657 L 1620 657 L 1620 639 L 1648 639 L 1648 630 Z M 1389 639 L 1389 648 L 1398 648 L 1398 657 L 1407 657 L 1407 639 Z M 1528 639 L 1528 657 L 1537 657 L 1537 639 Z M 1546 648 L 1546 657 L 1556 657 L 1556 648 Z M 1630 648 L 1630 657 L 1648 657 L 1648 648 Z M 1306 657 L 1306 667 L 1296 667 L 1296 676 L 1306 676 L 1306 694 L 1315 694 L 1315 685 L 1324 685 L 1324 722 L 1333 722 L 1333 731 L 1343 731 L 1343 750 L 1333 750 L 1333 759 L 1343 759 L 1343 778 L 1352 778 L 1352 769 L 1361 769 L 1361 722 L 1352 722 L 1352 704 L 1361 704 L 1361 713 L 1370 713 L 1370 704 L 1380 704 L 1380 685 L 1389 685 L 1389 676 L 1380 676 L 1380 667 L 1370 667 L 1370 657 L 1352 657 L 1352 667 L 1361 667 L 1361 676 L 1370 676 L 1370 685 L 1361 685 L 1361 676 L 1352 676 L 1352 667 L 1315 667 L 1315 657 Z M 1407 657 L 1407 667 L 1417 667 L 1417 657 Z M 1574 667 L 1574 676 L 1583 676 L 1583 667 Z M 2130 667 L 2130 676 L 2139 676 L 2139 667 Z M 2148 667 L 2148 676 L 2157 676 L 2157 667 Z M 991 676 L 991 685 L 963 685 L 963 694 L 954 694 L 954 722 L 963 722 L 963 704 L 972 704 L 972 694 L 1000 694 L 1000 685 L 1074 685 L 1074 676 Z M 2120 676 L 2120 685 L 2130 685 L 2130 676 Z M 1389 685 L 1389 694 L 1398 694 L 1398 685 Z M 1259 694 L 1259 704 L 1278 704 L 1278 694 Z M 1398 694 L 1398 704 L 1407 704 L 1407 694 Z M 1278 704 L 1278 731 L 1287 731 L 1287 741 L 1296 741 L 1296 750 L 1306 750 L 1306 769 L 1315 769 L 1315 778 L 1324 778 L 1324 741 L 1315 741 L 1315 722 L 1306 722 L 1306 713 L 1296 713 L 1296 704 Z M 981 713 L 981 722 L 1000 722 L 1000 713 Z M 944 722 L 944 731 L 954 731 L 954 722 Z M 1583 722 L 1583 741 L 1593 741 L 1593 722 Z M 1602 731 L 1602 741 L 1611 741 L 1611 731 Z M 954 750 L 954 759 L 963 759 L 963 750 Z M 1009 750 L 1009 759 L 1000 759 L 1000 769 L 991 769 L 991 778 L 1000 778 L 1000 787 L 1019 787 L 1019 796 L 1028 796 L 1028 787 L 1037 787 L 1037 778 L 1046 778 L 1046 769 L 1037 769 L 1037 759 L 1028 759 L 1028 750 Z M 1046 759 L 1046 769 L 1056 769 L 1056 759 Z M 963 769 L 963 778 L 972 778 L 972 769 Z M 1593 769 L 1593 778 L 1602 778 L 1602 769 Z M 1056 778 L 1056 787 L 1046 787 L 1046 796 L 1037 796 L 1037 806 L 1046 806 L 1046 815 L 1065 815 L 1065 824 L 1074 824 L 1074 815 L 1083 815 L 1083 806 L 1093 806 L 1093 787 L 1083 787 L 1083 796 L 1074 796 L 1074 778 Z M 1324 778 L 1324 796 L 1333 796 L 1333 778 Z M 1009 806 L 1009 815 L 1019 815 L 1019 806 Z M 1324 815 L 1324 824 L 1333 824 L 1333 815 Z M 1602 824 L 1602 833 L 1611 833 L 1611 824 Z M 1426 870 L 1426 880 L 1435 880 L 1435 889 L 1426 889 L 1426 898 L 1417 898 L 1417 880 L 1398 880 L 1398 917 L 1426 917 L 1426 935 L 1435 935 L 1435 954 L 1426 954 L 1426 963 L 1435 963 L 1435 981 L 1426 981 L 1426 1009 L 1417 1009 L 1417 1019 L 1426 1019 L 1426 1028 L 1417 1028 L 1417 1046 L 1435 1046 L 1435 1056 L 1472 1056 L 1472 1046 L 1463 1046 L 1463 1037 L 1472 1037 L 1472 1028 L 1463 1028 L 1463 1019 L 1454 1019 L 1454 991 L 1444 991 L 1444 926 L 1463 926 L 1463 907 L 1444 907 L 1444 880 L 1454 880 L 1454 870 Z M 1657 880 L 1657 944 L 1639 944 L 1639 954 L 1648 954 L 1648 963 L 1657 963 L 1657 972 L 1667 972 L 1667 898 L 1676 898 L 1676 889 L 1667 889 L 1667 880 Z M 1380 889 L 1380 898 L 1389 898 L 1389 889 Z M 1463 889 L 1463 898 L 1472 898 L 1472 889 Z M 1454 935 L 1454 954 L 1463 954 L 1463 935 Z M 1602 935 L 1602 963 L 1611 963 L 1611 954 L 1630 954 L 1630 944 L 1639 944 L 1639 935 Z M 1648 972 L 1648 1019 L 1639 1019 L 1639 1037 L 1648 1037 L 1648 1046 L 1657 1046 L 1657 1000 L 1667 1000 L 1667 991 L 1657 991 L 1657 972 Z M 1491 1000 L 1491 1019 L 1509 1019 L 1509 1009 L 1500 1009 L 1500 1000 Z M 1796 1000 L 1796 1028 L 1806 1028 L 1806 1000 Z M 1769 1009 L 1769 1019 L 1778 1019 L 1778 1009 Z M 1500 1028 L 1500 1037 L 1509 1037 L 1509 1028 Z M 1537 1028 L 1537 1046 L 1528 1046 L 1528 1065 L 1519 1065 L 1519 1083 L 1528 1083 L 1528 1074 L 1537 1074 L 1537 1093 L 1556 1093 L 1556 1046 L 1546 1046 L 1546 1028 Z M 1491 1056 L 1491 1065 L 1500 1065 L 1500 1056 Z M 1639 1056 L 1639 1083 L 1648 1083 L 1648 1056 Z M 1583 1065 L 1583 1074 L 1593 1074 L 1593 1065 Z M 1435 1074 L 1435 1083 L 1444 1083 L 1444 1074 Z M 1426 1083 L 1426 1093 L 1417 1093 L 1417 1111 L 1426 1111 L 1426 1120 L 1435 1120 L 1435 1083 Z M 1481 1083 L 1481 1093 L 1491 1093 L 1491 1083 Z M 1509 1083 L 1509 1093 L 1519 1093 L 1519 1083 Z M 1444 1093 L 1444 1102 L 1454 1102 L 1454 1093 Z M 1454 1102 L 1454 1111 L 1463 1111 L 1463 1102 Z M 1630 1102 L 1630 1111 L 1639 1111 L 1639 1102 Z M 1731 1111 L 1731 1120 L 1741 1120 L 1741 1111 Z M 1333 1130 L 1333 1139 L 1444 1139 L 1444 1148 L 1454 1148 L 1454 1130 Z M 1620 1130 L 1620 1139 L 1630 1139 L 1630 1130 Z M 1509 1139 L 1509 1148 L 1519 1148 L 1519 1139 Z M 1398 1148 L 1398 1157 L 1444 1157 L 1444 1148 Z M 1528 1148 L 1528 1157 L 1537 1157 L 1537 1148 Z M 1657 1148 L 1657 1167 L 1667 1167 L 1667 1148 Z M 1537 1157 L 1537 1176 L 1546 1176 L 1546 1157 Z M 1315 1167 L 1315 1176 L 1296 1176 L 1296 1185 L 1315 1185 L 1315 1194 L 1324 1194 L 1324 1204 L 1315 1204 L 1315 1213 L 1324 1213 L 1324 1222 L 1333 1222 L 1333 1231 L 1343 1231 L 1343 1241 L 1352 1241 L 1352 1250 L 1361 1250 L 1361 1259 L 1370 1259 L 1370 1269 L 1398 1269 L 1398 1278 L 1407 1278 L 1407 1269 L 1435 1269 L 1435 1278 L 1463 1278 L 1463 1269 L 1481 1269 L 1481 1259 L 1500 1259 L 1500 1250 L 1509 1250 L 1509 1231 L 1528 1231 L 1528 1250 L 1537 1250 L 1537 1269 L 1546 1269 L 1546 1222 L 1537 1222 L 1537 1194 L 1509 1194 L 1509 1204 L 1500 1204 L 1500 1185 L 1491 1185 L 1491 1194 L 1472 1194 L 1472 1204 L 1481 1204 L 1481 1213 L 1454 1213 L 1454 1222 L 1398 1222 L 1398 1213 L 1389 1213 L 1389 1204 L 1370 1204 L 1370 1213 L 1380 1213 L 1380 1222 L 1352 1222 L 1352 1213 L 1333 1213 L 1333 1204 L 1370 1204 L 1370 1194 L 1352 1194 L 1352 1185 L 1407 1185 L 1407 1194 L 1472 1194 L 1472 1185 L 1444 1185 L 1444 1176 L 1435 1176 L 1435 1167 L 1398 1167 L 1398 1176 L 1343 1176 L 1343 1185 L 1324 1185 L 1324 1176 L 1343 1176 L 1343 1167 Z M 1481 1167 L 1481 1176 L 1500 1176 L 1500 1167 Z M 1602 1176 L 1602 1185 L 1611 1185 L 1611 1176 Z M 1648 1241 L 1648 1259 L 1657 1259 L 1657 1241 Z M 1528 1269 L 1528 1333 L 1537 1333 L 1537 1269 Z M 1639 1269 L 1639 1287 L 1648 1287 L 1648 1269 Z M 1500 1278 L 1500 1287 L 1491 1287 L 1491 1296 L 1472 1296 L 1472 1306 L 1463 1306 L 1463 1315 L 1481 1315 L 1481 1333 L 1491 1333 L 1491 1315 L 1509 1315 L 1509 1296 L 1519 1296 L 1519 1278 Z M 1833 1278 L 1833 1287 L 1843 1287 L 1843 1278 Z M 1630 1287 L 1630 1296 L 1639 1296 L 1639 1287 Z M 1556 1296 L 1556 1306 L 1565 1306 L 1565 1296 Z M 1620 1306 L 1620 1315 L 1630 1315 L 1630 1306 Z M 1611 1324 L 1611 1343 L 1620 1343 L 1620 1324 Z M 1519 1333 L 1519 1343 L 1528 1343 L 1528 1333 Z M 1519 1352 L 1519 1380 L 1528 1380 L 1528 1352 Z M 1500 1370 L 1500 1380 L 1491 1380 L 1491 1398 L 1481 1398 L 1481 1417 L 1491 1417 L 1491 1426 L 1500 1426 L 1500 1407 L 1509 1407 L 1509 1389 L 1519 1389 L 1519 1380 L 1509 1380 L 1509 1370 Z M 1444 1417 L 1444 1435 L 1463 1435 L 1463 1417 Z M 1417 1426 L 1417 1435 L 1389 1435 L 1389 1444 L 1398 1444 L 1398 1454 L 1389 1454 L 1389 1444 L 1380 1444 L 1380 1463 L 1398 1463 L 1398 1472 L 1407 1472 L 1407 1463 L 1426 1463 L 1426 1454 L 1444 1454 L 1444 1435 L 1435 1435 L 1435 1426 Z M 1352 1444 L 1352 1454 L 1343 1454 L 1343 1472 L 1361 1472 L 1361 1463 L 1370 1463 L 1370 1444 Z M 1324 1463 L 1324 1481 L 1343 1481 L 1343 1472 L 1333 1472 L 1333 1463 Z M 1315 1481 L 1315 1509 L 1324 1509 L 1324 1481 Z M 1343 1481 L 1343 1491 L 1352 1491 L 1352 1481 Z M 1259 1500 L 1259 1519 L 1269 1519 L 1269 1500 Z M 1296 1500 L 1296 1509 L 1306 1509 L 1306 1500 Z M 1241 1509 L 1241 1519 L 1250 1519 L 1250 1509 Z M 1250 1519 L 1250 1528 L 1259 1528 L 1259 1519 Z M 1269 1519 L 1269 1528 L 1278 1528 L 1278 1519 Z M 1213 1528 L 1213 1537 L 1194 1537 L 1194 1546 L 1213 1546 L 1213 1583 L 1222 1583 L 1222 1602 L 1213 1602 L 1213 1620 L 1222 1620 L 1222 1648 L 1231 1648 L 1231 1657 L 1250 1657 L 1250 1648 L 1241 1648 L 1241 1630 L 1250 1630 L 1250 1593 L 1231 1593 L 1231 1574 L 1222 1574 L 1222 1565 L 1231 1565 L 1231 1528 Z M 1241 1537 L 1241 1565 L 1231 1565 L 1231 1574 L 1241 1574 L 1241 1583 L 1259 1583 L 1259 1620 L 1269 1620 L 1269 1611 L 1278 1611 L 1278 1602 L 1287 1602 L 1287 1583 L 1296 1583 L 1296 1565 L 1287 1565 L 1287 1556 L 1278 1556 L 1278 1537 L 1269 1537 L 1269 1546 L 1259 1546 L 1259 1537 Z M 1185 1556 L 1185 1565 L 1194 1565 L 1194 1556 Z M 1167 1583 L 1167 1611 L 1176 1611 L 1176 1602 L 1194 1602 L 1194 1593 L 1176 1593 L 1176 1583 Z M 1204 1583 L 1204 1593 L 1213 1593 L 1213 1583 Z M 1194 1611 L 1194 1620 L 1204 1620 L 1204 1611 Z M 1269 1620 L 1269 1630 L 1278 1630 L 1278 1620 Z M 1204 1667 L 1204 1676 L 1213 1676 L 1213 1667 Z M 1231 1667 L 1231 1676 L 1241 1676 L 1241 1667 Z M 1556 1731 L 1556 1741 L 1565 1741 L 1565 1731 Z M 1426 1824 L 1426 1833 L 1435 1833 L 1435 1824 Z M 2315 287 L 2324 287 L 2324 296 L 2315 296 Z M 1278 324 L 1287 324 L 1287 333 L 1278 333 Z M 1259 333 L 1269 333 L 1269 343 L 1259 343 Z M 1241 343 L 1250 343 L 1250 352 L 1269 352 L 1269 361 L 1259 361 L 1259 370 L 1250 370 L 1250 380 L 1259 380 L 1259 389 L 1250 389 L 1250 398 L 1241 398 L 1241 435 L 1231 435 L 1231 454 L 1241 454 L 1241 463 L 1231 463 L 1231 491 L 1241 491 L 1241 500 L 1231 500 L 1231 491 L 1222 491 L 1222 500 L 1213 500 L 1213 528 L 1231 528 L 1231 537 L 1250 537 L 1250 546 L 1083 546 L 1083 556 L 1074 556 L 1074 546 L 1065 546 L 1065 556 L 1019 556 L 1019 546 L 972 546 L 972 537 L 944 537 L 944 528 L 926 528 L 926 509 L 935 509 L 935 500 L 944 500 L 944 491 L 954 491 L 954 500 L 981 500 L 981 491 L 991 491 L 991 481 L 1000 481 L 1000 472 L 1009 472 L 1009 463 L 1019 463 L 1019 472 L 1028 472 L 1028 481 L 1046 481 L 1046 472 L 1056 472 L 1056 463 L 1065 463 L 1065 454 L 1074 454 L 1074 444 L 1083 444 L 1083 435 L 1102 435 L 1102 426 L 1111 426 L 1111 417 L 1120 417 L 1120 407 L 1139 407 L 1139 398 L 1148 398 L 1148 389 L 1157 389 L 1157 398 L 1167 398 L 1167 389 L 1185 389 L 1185 380 L 1204 380 L 1204 370 L 1213 370 L 1213 361 L 1222 361 L 1222 352 L 1231 352 L 1231 361 L 1222 361 L 1222 370 L 1241 370 L 1241 361 L 1250 361 L 1250 352 L 1241 352 Z M 1213 370 L 1213 380 L 1222 380 L 1222 370 Z M 1204 380 L 1204 389 L 1213 389 L 1213 380 Z M 1148 398 L 1148 407 L 1139 407 L 1139 417 L 1130 417 L 1130 426 L 1120 426 L 1120 435 L 1139 435 L 1139 426 L 1148 426 L 1148 417 L 1157 417 L 1157 398 Z M 1185 398 L 1185 407 L 1204 407 L 1204 398 Z M 1102 454 L 1102 472 L 1111 472 L 1111 454 Z M 1019 481 L 1019 491 L 1028 491 L 1028 481 Z M 944 500 L 944 519 L 954 519 L 954 500 Z M 1065 500 L 1065 509 L 1074 509 L 1074 519 L 1083 519 L 1083 500 Z M 1056 509 L 1056 519 L 1065 519 L 1065 509 Z M 1065 519 L 1065 528 L 1074 528 L 1074 519 Z M 1315 380 L 1343 380 L 1343 398 L 1333 398 L 1333 407 L 1296 407 L 1296 417 L 1278 417 L 1278 407 L 1287 407 L 1287 398 L 1296 398 L 1296 389 L 1306 389 L 1306 398 L 1324 398 L 1324 389 L 1315 389 Z M 1519 389 L 1528 389 L 1528 398 L 1519 398 Z M 1370 398 L 1380 398 L 1380 407 L 1398 407 L 1398 417 L 1370 417 L 1370 426 L 1361 426 L 1361 417 L 1370 417 Z M 1491 398 L 1500 398 L 1500 407 L 1491 407 Z M 1500 417 L 1519 417 L 1519 435 L 1528 435 L 1528 444 L 1537 444 L 1537 454 L 1528 454 L 1528 463 L 1537 463 L 1537 491 L 1546 491 L 1546 500 L 1556 500 L 1556 528 L 1574 528 L 1574 537 L 1556 537 L 1556 528 L 1546 528 L 1546 537 L 1491 537 L 1491 528 L 1481 528 L 1481 537 L 1472 537 L 1472 519 L 1463 519 L 1463 528 L 1417 528 L 1417 519 L 1407 519 L 1407 509 L 1426 509 L 1426 500 L 1435 500 L 1435 472 L 1444 472 L 1444 500 L 1454 500 L 1454 491 L 1463 491 L 1463 472 L 1472 472 L 1472 491 L 1491 491 L 1491 472 L 1481 472 L 1481 463 L 1472 463 L 1472 454 L 1481 454 L 1481 444 L 1500 444 L 1500 435 L 1509 435 L 1509 426 L 1500 426 Z M 1509 435 L 1509 454 L 1528 454 L 1528 444 L 1519 444 L 1519 435 Z M 1500 454 L 1500 463 L 1509 463 L 1509 454 Z M 1454 509 L 1454 519 L 1463 519 L 1463 509 Z M 1519 519 L 1519 528 L 1528 528 L 1528 519 Z M 1343 426 L 1352 426 L 1352 435 L 1343 435 Z M 1444 426 L 1454 426 L 1454 435 L 1444 435 Z M 963 472 L 972 472 L 972 481 L 963 481 Z M 1250 472 L 1259 472 L 1259 491 L 1250 491 Z M 1259 537 L 1278 537 L 1278 546 L 1259 546 Z M 1657 565 L 1667 565 L 1667 574 L 1676 574 L 1676 583 L 1667 583 L 1667 574 L 1657 574 Z M 1630 574 L 1639 574 L 1639 583 L 1630 583 Z M 1685 583 L 1694 583 L 1694 593 L 1685 593 Z M 2213 602 L 2222 602 L 2222 611 L 2213 611 Z M 1639 676 L 1648 676 L 1648 685 L 1657 685 L 1657 694 L 1630 694 L 1630 685 L 1639 685 Z M 1648 713 L 1657 713 L 1657 722 L 1648 722 Z M 1648 769 L 1657 769 L 1657 778 L 1648 778 Z M 1630 796 L 1639 796 L 1639 806 L 1630 806 Z M 1685 917 L 1694 917 L 1694 935 L 1685 935 Z M 1852 926 L 1870 926 L 1870 935 L 1861 935 L 1861 981 L 1852 981 Z M 1833 935 L 1843 935 L 1843 991 L 1852 991 L 1852 1009 L 1843 1009 L 1843 1028 L 1833 1028 L 1833 1056 L 1824 1056 L 1824 1083 L 1815 1083 L 1815 1046 L 1824 1046 L 1824 954 L 1833 954 Z M 1759 963 L 1769 963 L 1769 972 L 1759 972 Z M 1843 1083 L 1861 1083 L 1861 1111 L 1852 1111 L 1852 1093 L 1843 1093 Z M 1870 1148 L 1880 1148 L 1880 1157 L 1870 1157 Z M 1269 1574 L 1278 1574 L 1278 1583 L 1269 1583 Z M 1148 1731 L 1157 1731 L 1157 1741 L 1148 1741 L 1148 1750 L 1139 1750 L 1139 1741 L 1148 1741 Z M 1000 1741 L 1009 1741 L 1009 1750 L 1000 1750 Z M 972 1759 L 981 1759 L 981 1769 L 1000 1769 L 1000 1778 L 991 1778 L 991 1787 L 1009 1787 L 1009 1796 L 1019 1796 L 1019 1806 L 1037 1806 L 1037 1824 L 1046 1824 L 1046 1833 L 1028 1833 L 1028 1843 L 1046 1843 L 1046 1852 L 1056 1852 L 1056 1861 L 1065 1861 L 1065 1843 L 1056 1843 L 1056 1833 L 1065 1833 L 1065 1843 L 1074 1843 L 1074 1861 L 1083 1861 L 1083 1870 L 1074 1870 L 1074 1861 L 1065 1861 L 1065 1880 L 1056 1880 L 1056 1870 L 1046 1870 L 1046 1861 L 1028 1861 L 1028 1852 L 1019 1852 L 1019 1843 L 1009 1843 L 1009 1852 L 991 1852 L 991 1843 L 981 1843 L 981 1861 L 1000 1861 L 1000 1870 L 1019 1870 L 1019 1880 L 1037 1880 L 1037 1889 L 1046 1889 L 1046 1898 L 1037 1898 L 1037 1889 L 1019 1889 L 1019 1880 L 1000 1880 L 1000 1870 L 972 1870 L 972 1889 L 954 1889 L 954 1898 L 944 1898 L 944 1907 L 935 1907 L 935 1926 L 926 1926 L 926 1935 L 917 1935 L 917 1944 L 926 1944 L 926 1954 L 944 1954 L 944 1963 L 963 1963 L 963 1972 L 981 1972 L 981 1981 L 1000 1981 L 1000 1991 L 1009 1991 L 1009 2000 L 963 2000 L 963 1991 L 935 1991 L 935 1981 L 917 1981 L 917 1972 L 898 1972 L 898 1963 L 870 1963 L 870 1954 L 852 1954 L 852 1944 L 833 1944 L 833 1935 L 824 1935 L 824 1907 L 843 1907 L 843 1917 L 861 1917 L 861 1926 L 880 1926 L 880 1935 L 907 1935 L 907 1917 L 917 1917 L 917 1907 L 926 1907 L 926 1889 L 935 1889 L 935 1880 L 944 1880 L 944 1852 L 935 1852 L 935 1843 L 917 1843 L 917 1833 L 898 1833 L 898 1824 L 907 1824 L 907 1815 L 926 1815 L 926 1824 L 935 1824 L 935 1833 L 944 1833 L 944 1843 L 954 1843 L 954 1852 L 972 1852 L 972 1833 L 954 1833 L 954 1824 L 944 1824 L 944 1806 L 926 1806 L 926 1796 L 944 1796 L 944 1806 L 963 1806 L 963 1787 L 954 1787 L 954 1778 L 963 1778 L 963 1769 L 972 1769 Z M 1019 1824 L 1019 1833 L 1028 1833 L 1028 1824 Z M 1056 1796 L 1065 1796 L 1065 1806 L 1056 1806 Z M 1380 1806 L 1389 1806 L 1389 1815 L 1380 1815 Z M 1056 1898 L 1065 1898 L 1065 1917 L 1056 1917 Z M 1296 2037 L 1306 2037 L 1306 2046 L 1296 2046 Z M 1231 2046 L 1241 2046 L 1241 2056 L 1250 2056 L 1250 2046 L 1278 2046 L 1278 2074 L 1287 2074 L 1287 2083 L 1259 2083 L 1259 2093 L 1250 2093 L 1250 2111 L 1259 2111 L 1259 2130 L 1250 2130 L 1250 2139 L 1259 2139 L 1259 2148 L 1231 2148 L 1231 2157 L 1250 2157 L 1250 2167 L 1241 2167 L 1241 2176 L 1231 2176 L 1231 2185 L 1213 2185 L 1213 2074 L 1231 2074 Z M 1259 2056 L 1259 2065 L 1269 2065 L 1269 2056 Z M 1241 2074 L 1241 2093 L 1250 2093 L 1250 2074 Z M 1157 2148 L 1194 2148 L 1194 2157 L 1204 2157 L 1204 2185 L 1194 2185 L 1194 2194 L 1185 2194 L 1185 2204 L 1167 2204 L 1167 2213 L 1148 2213 L 1148 2222 L 1139 2222 L 1139 2213 L 1130 2213 L 1130 2222 L 1111 2222 L 1111 2213 L 1102 2213 L 1102 2222 L 1093 2222 L 1093 2213 L 1083 2213 L 1083 2222 L 1056 2222 L 1056 2213 L 1037 2213 L 1037 2185 L 1046 2185 L 1046 2176 L 1074 2176 L 1074 2167 L 1148 2167 L 1148 2157 L 1157 2157 Z" /></svg>